<svg width="860px" height="476px"
 viewBox="0.00 0.00 860.49 476.00" xmlns="http://www.w3.org/2000/svg" xmlns:xlink="http://www.w3.org/1999/xlink">
<g id="graph0" class="graph" transform="scale(1.0 1.0) rotate(0.0) translate(4.0 472.0)">
<title>compose&#45;ui&#45;ui</title>
<polygon fill="white" stroke="transparent" points="-4,4 -4,-472 856.49,-472 856.49,4 -4,4"/>
<!-- commonMain -->
<g id="node1" class="node">
<title>commonMain</title>
<ellipse fill="none" stroke="black" cx="218.44" cy="-450" rx="65.43" ry="18"/>
<text text-anchor="middle" x="218.44" y="-445.8" font-family="Times,serif" font-size="14.00">commonMain</text>
</g>
<!-- jvmMain -->
<g id="node2" class="node">
<title>jvmMain</title>
<ellipse fill="none" stroke="black" cx="160.44" cy="-378" rx="46.39" ry="18"/>
<text text-anchor="middle" x="160.44" y="-373.8" font-family="Times,serif" font-size="14.00">jvmMain</text>
</g>
<!-- commonMain&#45;&#45;jvmMain -->
<g id="edge1" class="edge">
<title>commonMain&#45;&#45;jvmMain</title>
<path fill="none" stroke="black" d="M204.4,-432.05C195.15,-420.89 183.1,-406.34 173.96,-395.31"/>
</g>
<!-- skikoMain -->
<g id="node3" class="node">
<title>skikoMain</title>
<ellipse fill="none" stroke="black" cx="277.44" cy="-378" rx="52.19" ry="18"/>
<text text-anchor="middle" x="277.44" y="-373.8" font-family="Times,serif" font-size="14.00">skikoMain</text>
</g>
<!-- commonMain&#45;&#45;skikoMain -->
<g id="edge2" class="edge">
<title>commonMain&#45;&#45;skikoMain</title>
<path fill="none" stroke="black" d="M232.43,-432.41C241.83,-421.25 254.18,-406.6 263.56,-395.47"/>
</g>
<!-- desktopMain -->
<g id="node8" class="node">
<title>desktopMain</title>
<ellipse fill="none" stroke="black" cx="165.44" cy="-234" rx="61.42" ry="18"/>
<text text-anchor="middle" x="165.44" y="-229.8" font-family="Times,serif" font-size="14.00">desktopMain</text>
</g>
<!-- jvmMain&#45;&#45;desktopMain -->
<g id="edge8" class="edge">
<title>jvmMain&#45;&#45;desktopMain</title>
<path fill="none" stroke="black" d="M161.05,-359.87C162.01,-332.58 163.88,-279.52 164.84,-252.19"/>
</g>
<!-- jsNativeMain -->
<g id="node4" class="node">
<title>jsNativeMain</title>
<ellipse fill="none" stroke="black" cx="413.44" cy="-306" rx="63.7" ry="18"/>
<text text-anchor="middle" x="413.44" y="-301.8" font-family="Times,serif" font-size="14.00">jsNativeMain</text>
</g>
<!-- skikoMain&#45;&#45;jsNativeMain -->
<g id="edge3" class="edge">
<title>skikoMain&#45;&#45;jsNativeMain</title>
<path fill="none" stroke="black" d="M305.29,-362.67C328.3,-350.83 360.85,-334.07 384.22,-322.04"/>
</g>
<!-- notMobileMain -->
<g id="node5" class="node">
<title>notMobileMain</title>
<ellipse fill="none" stroke="black" cx="260.44" cy="-306" rx="71.81" ry="18"/>
<text text-anchor="middle" x="260.44" y="-301.8" font-family="Times,serif" font-size="14.00">notMobileMain</text>
</g>
<!-- skikoMain&#45;&#45;notMobileMain -->
<g id="edge4" class="edge">
<title>skikoMain&#45;&#45;notMobileMain</title>
<path fill="none" stroke="black" d="M273.33,-360.05C270.7,-349.21 267.29,-335.18 264.64,-324.28"/>
</g>
<!-- jsWasmMain -->
<g id="node7" class="node">
<title>jsWasmMain</title>
<ellipse fill="none" stroke="black" cx="380.44" cy="-234" rx="62.56" ry="18"/>
<text text-anchor="middle" x="380.44" y="-229.8" font-family="Times,serif" font-size="14.00">jsWasmMain</text>
</g>
<!-- jsNativeMain&#45;&#45;jsWasmMain -->
<g id="edge10" class="edge">
<title>jsNativeMain&#45;&#45;jsWasmMain</title>
<path fill="none" stroke="black" d="M405.46,-288.05C400.34,-277.21 393.73,-263.18 388.59,-252.28"/>
</g>
<!-- nativeMain -->
<g id="node9" class="node">
<title>nativeMain</title>
<ellipse fill="none" stroke="black" cx="546.44" cy="-234" rx="55.03" ry="18"/>
<text text-anchor="middle" x="546.44" y="-229.8" font-family="Times,serif" font-size="14.00">nativeMain</text>
</g>
<!-- jsNativeMain&#45;&#45;nativeMain -->
<g id="edge9" class="edge">
<title>jsNativeMain&#45;&#45;nativeMain</title>
<path fill="none" stroke="black" d="M442.3,-289.81C464.92,-277.91 496.19,-261.45 518.55,-249.68"/>
</g>
<!-- macosMain -->
<g id="node6" class="node">
<title>macosMain</title>
<ellipse fill="none" stroke="black" cx="257.44" cy="-90" rx="56.18" ry="18"/>
<text text-anchor="middle" x="257.44" y="-85.8" font-family="Times,serif" font-size="14.00">macosMain</text>
</g>
<!-- notMobileMain&#45;&#45;macosMain -->
<g id="edge5" class="edge">
<title>notMobileMain&#45;&#45;macosMain</title>
<path fill="none" stroke="black" d="M260.2,-287.85C259.64,-247.78 258.25,-148.38 257.69,-108.23"/>
</g>
<!-- notMobileMain&#45;&#45;jsWasmMain -->
<g id="edge6" class="edge">
<title>notMobileMain&#45;&#45;jsWasmMain</title>
<path fill="none" stroke="black" d="M287.37,-289.29C307.28,-277.68 334.24,-261.95 354.02,-250.42"/>
</g>
<!-- notMobileMain&#45;&#45;desktopMain -->
<g id="edge7" class="edge">
<title>notMobileMain&#45;&#45;desktopMain</title>
<path fill="none" stroke="black" d="M238.41,-288.76C222.95,-277.38 202.39,-262.22 187.03,-250.91"/>
</g>
<!-- macosX64Main -->
<g id="node14" class="node">
<title>macosX64Main</title>
<ellipse fill="none" stroke="black" cx="257.44" cy="-18" rx="72.94" ry="18"/>
<text text-anchor="middle" x="257.44" y="-13.8" font-family="Times,serif" font-size="14.00">macosX64Main</text>
</g>
<!-- macosMain&#45;&#45;macosX64Main -->
<g id="edge16" class="edge">
<title>macosMain&#45;&#45;macosX64Main</title>
<path fill="none" stroke="black" d="M257.44,-71.7C257.44,-60.85 257.44,-46.92 257.44,-36.1"/>
</g>
<!-- macosArm64Main -->
<g id="node15" class="node">
<title>macosArm64Main</title>
<ellipse fill="none" stroke="black" cx="83.44" cy="-18" rx="83.39" ry="18"/>
<text text-anchor="middle" x="83.44" y="-13.8" font-family="Times,serif" font-size="14.00">macosArm64Main</text>
</g>
<!-- macosMain&#45;&#45;macosArm64Main -->
<g id="edge17" class="edge">
<title>macosMain&#45;&#45;macosArm64Main</title>
<path fill="none" stroke="black" d="M223.9,-75.5C194.47,-63.66 151.72,-46.47 121.12,-34.16"/>
</g>
<!-- wasmJsMain -->
<g id="node10" class="node">
<title>wasmJsMain</title>
<ellipse fill="none" stroke="black" cx="346.44" cy="-162" rx="61.41" ry="18"/>
<text text-anchor="middle" x="346.44" y="-157.8" font-family="Times,serif" font-size="14.00">wasmJsMain</text>
</g>
<!-- jsWasmMain&#45;&#45;wasmJsMain -->
<g id="edge11" class="edge">
<title>jsWasmMain&#45;&#45;wasmJsMain</title>
<path fill="none" stroke="black" d="M372.21,-216.05C366.95,-205.21 360.13,-191.18 354.84,-180.28"/>
</g>
<!-- jsMain -->
<g id="node11" class="node">
<title>jsMain</title>
<ellipse fill="none" stroke="black" cx="463.44" cy="-162" rx="37.72" ry="18"/>
<text text-anchor="middle" x="463.44" y="-157.8" font-family="Times,serif" font-size="14.00">jsMain</text>
</g>
<!-- jsWasmMain&#45;&#45;jsMain -->
<g id="edge12" class="edge">
<title>jsWasmMain&#45;&#45;jsMain</title>
<path fill="none" stroke="black" d="M399.69,-216.76C413.58,-205.05 432.19,-189.36 445.72,-177.95"/>
</g>
<!-- darwinMain -->
<g id="node12" class="node">
<title>darwinMain</title>
<ellipse fill="none" stroke="black" cx="577.44" cy="-162" rx="58.47" ry="18"/>
<text text-anchor="middle" x="577.44" y="-157.8" font-family="Times,serif" font-size="14.00">darwinMain</text>
</g>
<!-- nativeMain&#45;&#45;darwinMain -->
<g id="edge13" class="edge">
<title>nativeMain&#45;&#45;darwinMain</title>
<path fill="none" stroke="black" d="M553.95,-216.05C558.75,-205.21 564.96,-191.18 569.79,-180.28"/>
</g>
<!-- darwinMain&#45;&#45;macosMain -->
<g id="edge15" class="edge">
<title>darwinMain&#45;&#45;macosMain</title>
<path fill="none" stroke="black" d="M534.26,-149.76C526.35,-147.78 518.16,-145.79 510.44,-144 438.74,-127.4 355.08,-110.32 304.2,-100.18"/>
</g>
<!-- uikitMain -->
<g id="node13" class="node">
<title>uikitMain</title>
<ellipse fill="none" stroke="black" cx="580.44" cy="-90" rx="49.26" ry="18"/>
<text text-anchor="middle" x="580.44" y="-85.8" font-family="Times,serif" font-size="14.00">uikitMain</text>
</g>
<!-- darwinMain&#45;&#45;uikitMain -->
<g id="edge14" class="edge">
<title>darwinMain&#45;&#45;uikitMain</title>
<path fill="none" stroke="black" d="M578.19,-143.7C578.65,-132.85 579.25,-118.92 579.71,-108.1"/>
</g>
<!-- uikitX64Main -->
<g id="node16" class="node">
<title>uikitX64Main</title>
<ellipse fill="none" stroke="black" cx="584.44" cy="-18" rx="65.51" ry="18"/>
<text text-anchor="middle" x="584.44" y="-13.8" font-family="Times,serif" font-size="14.00">uikitX64Main</text>
</g>
<!-- uikitMain&#45;&#45;uikitX64Main -->
<g id="edge18" class="edge">
<title>uikitMain&#45;&#45;uikitX64Main</title>
<path fill="none" stroke="black" d="M581.43,-71.7C582.05,-60.85 582.85,-46.92 583.47,-36.1"/>
</g>
<!-- uikitSimArm64Main -->
<g id="node17" class="node">
<title>uikitSimArm64Main</title>
<ellipse fill="none" stroke="black" cx="760.44" cy="-18" rx="92.09" ry="18"/>
<text text-anchor="middle" x="760.44" y="-13.8" font-family="Times,serif" font-size="14.00">uikitSimArm64Main</text>
</g>
<!-- uikitMain&#45;&#45;uikitSimArm64Main -->
<g id="edge19" class="edge">
<title>uikitMain&#45;&#45;uikitSimArm64Main</title>
<path fill="none" stroke="black" d="M613.04,-76.32C643.33,-64.54 688.51,-46.97 720.87,-34.39"/>
</g>
<!-- uikitArm64Main -->
<g id="node18" class="node">
<title>uikitArm64Main</title>
<ellipse fill="none" stroke="black" cx="424.44" cy="-18" rx="76.47" ry="18"/>
<text text-anchor="middle" x="424.44" y="-13.8" font-family="Times,serif" font-size="14.00">uikitArm64Main</text>
</g>
<!-- uikitMain&#45;&#45;uikitArm64Main -->
<g id="edge20" class="edge">
<title>uikitMain&#45;&#45;uikitArm64Main</title>
<path fill="none" stroke="black" d="M550.37,-75.5C523.98,-63.66 485.65,-46.47 458.22,-34.16"/>
</g>
</g>
</svg>
